<?xml version="1.0" encoding="UTF-8"?>
<svg version="1.1" xmlns="http://www.w3.org/2000/svg" width="500" height="500">
<path d="M0 0 C0 0.66 0 1.32 0 2 C0.70511719 2.2371875 1.41023437 2.474375 2.13671875 2.71875 C5.50286868 4.22502173 7.96983173 6.15584517 10.8125 8.5 C11.78832031 9.2940625 12.76414062 10.088125 13.76953125 10.90625 C14.50558594 11.5971875 15.24164063 12.288125 16 13 C16 13.66 16 14.32 16 15 C16.99 15.33 17.98 15.66 19 16 C19 16.66 19 17.32 19 18 C19.66 18 20.32 18 21 18 C21 18.66 21 19.32 21 20 C21.66 20 22.32 20 23 20 C26 23.46153846 26 23.46153846 26 26 C26.66 26 27.32 26 28 26 C28 26.66 28 27.32 28 28 C28.66 28 29.32 28 30 28 C31.2890625 29.4609375 31.2890625 29.4609375 32.625 31.375 C33.07101562 32.00148437 33.51703125 32.62796875 33.9765625 33.2734375 C35 35 35 35 35 37 C35.66 37 36.32 37 37 37 C38.5859375 39.37890625 38.5859375 39.37890625 40.375 42.5625 C40.96023438 43.59503906 41.54546875 44.62757813 42.1484375 45.69140625 C43.06496094 47.32916016 43.06496094 47.32916016 44 49 C44.65226562 50.10859375 45.30453125 51.2171875 45.9765625 52.359375 C66.67434829 88.57799919 69.74217135 131.67816758 59.1015625 171.51953125 C57.78288002 175.68600675 56.14458798 179.56019821 54.22265625 183.48046875 C52.99427252 186.01180264 51.95259984 188.56416356 50.9375 191.1875 C47.92259968 198.78457025 44.33379612 205.19137446 39.48828125 211.80078125 C37.84456861 214.0166234 37.84456861 214.0166234 37 217 C36.34 217 35.68 217 35 217 C34.773125 217.70125 34.54625 218.4025 34.3125 219.125 C32.66158712 222.74128535 30.7091165 225.08769976 28 228 C27.34 228 26.68 228 26 228 C25.7834375 228.54140625 25.566875 229.0828125 25.34375 229.640625 C23.53500003 232.81645344 21.08276201 235.20728081 18.5 237.75 C18.00113281 238.25660156 17.50226563 238.76320313 16.98828125 239.28515625 C13.25341139 243 13.25341139 243 11 243 C11 243.66 11 244.32 11 245 C9.1015625 246.7265625 9.1015625 246.7265625 6.625 248.625 C5.40683594 249.57246094 5.40683594 249.57246094 4.1640625 250.5390625 C2 252 2 252 0 252 C0 252.66 0 253.32 0 254 C-0.969375 254.53625 -1.93875 255.0725 -2.9375 255.625 C-5.74900787 257.21715128 -8.37018686 258.9551175 -11.00390625 260.82421875 C-16.35840297 264.41105738 -22.03754851 266.79280614 -28 269.1875 C-29.02867187 269.61224609 -30.05734375 270.03699219 -31.1171875 270.47460938 C-69.94718492 286.35736277 -112.30546186 285.64317401 -151.05664062 269.82519531 C-159.78623472 266.11840787 -167.97737476 261.6036847 -175.890625 256.3828125 C-177.93568438 254.98367489 -177.93568438 254.98367489 -180 254 C-180 253.34 -180 252.68 -180 252 C-180.7425 251.731875 -181.485 251.46375 -182.25 251.1875 C-184.89061949 250.04723249 -186.85552844 248.90619694 -189 247 C-189 246.34 -189 245.68 -189 245 C-189.66 245 -190.32 245 -191 245 C-191 244.34 -191 243.68 -191 243 C-191.5775 242.731875 -192.155 242.46375 -192.75 242.1875 C-195.05550043 240.97070811 -197.02056192 239.69666121 -199 238 C-199 237.34 -199 236.68 -199 236 C-199.99 235.67 -200.98 235.34 -202 235 C-203.60546875 233.44140625 -203.60546875 233.44140625 -205.1875 231.5625 C-205.71730469 230.94503906 -206.24710938 230.32757813 -206.79296875 229.69140625 C-208 228 -208 228 -208 226 C-208.66 226 -209.32 226 -210 226 C-211.2890625 224.5390625 -211.2890625 224.5390625 -212.625 222.625 C-213.07101563 221.99851562 -213.51703125 221.37203125 -213.9765625 220.7265625 C-215 219 -215 219 -215 217 C-215.66 217 -216.32 217 -217 217 C-217.85078125 215.49373047 -217.85078125 215.49373047 -218.71875 213.95703125 C-220.17590238 211.40509052 -221.67103907 208.88471874 -223.21875 206.38671875 C-227.00900292 200.25795592 -230.67253285 194.30495267 -233.09619141 187.48095703 C-233.9762939 185.06507332 -234.94807545 182.70714573 -235.94140625 180.3359375 C-237.96674161 175.2858655 -239.40156905 170.23335851 -240.625 164.9375 C-240.94247192 163.56960327 -240.94247192 163.56960327 -241.26635742 162.17407227 C-248.1736402 131.39599335 -247.91514724 93.24774695 -232.12890625 65.08984375 C-230.94407214 62.89646573 -230.14179013 60.7240125 -229.3125 58.375 C-227.37906233 53.36892071 -224.69136488 48.92216728 -221.875 44.375 C-221.43067627 43.65103027 -220.98635254 42.92706055 -220.52856445 42.18115234 C-219.41118437 40.41548399 -218.21211461 38.70202853 -217 37 C-216.34 37 -215.68 37 -215 37 C-214.731875 36.2575 -214.46375 35.515 -214.1875 34.75 C-213.04723249 32.10938051 -211.90619694 30.14447156 -210 28 C-209.34 28 -208.68 28 -208 28 C-207.71125 27.401875 -207.4225 26.80375 -207.125 26.1875 C-206 24 -206 24 -204 21 C-203.34 21 -202.68 21 -202 21 C-201.67 20.01 -201.34 19.02 -201 18 C-200.34 18 -199.68 18 -199 18 C-198.67 17.01 -198.34 16.02 -198 15 C-197.34 15 -196.68 15 -196 15 C-196 14.34 -196 13.68 -196 13 C-194.33101325 11.43331541 -192.58803244 9.944819 -190.8125 8.5 C-189.84957031 7.7059375 -188.88664062 6.911875 -187.89453125 6.09375 C-185.2756834 4.19941471 -183.04431404 3.02404713 -180 2 C-180 1.34 -180 0.68 -180 0 C-177.74115708 -1.65566416 -175.50216012 -3.15484509 -173.125 -4.625 C-172.40900635 -5.0686792 -171.6930127 -5.5123584 -170.95532227 -5.96948242 C-120.66064619 -36.34439717 -47.57432432 -37.2934322 0 0 Z " fill="#DC2733" transform="translate(340,123)"/>
<path d="M0 0 C0 0.66 0 1.32 0 2 C0.70511719 2.2371875 1.41023437 2.474375 2.13671875 2.71875 C5.50286868 4.22502173 7.96983173 6.15584517 10.8125 8.5 C11.78832031 9.2940625 12.76414062 10.088125 13.76953125 10.90625 C14.50558594 11.5971875 15.24164063 12.288125 16 13 C16 13.66 16 14.32 16 15 C16.99 15.33 17.98 15.66 19 16 C19 16.66 19 17.32 19 18 C19.66 18 20.32 18 21 18 C21 18.66 21 19.32 21 20 C21.66 20 22.32 20 23 20 C26 23.46153846 26 23.46153846 26 26 C26.66 26 27.32 26 28 26 C28 26.66 28 27.32 28 28 C28.66 28 29.32 28 30 28 C31.2890625 29.4609375 31.2890625 29.4609375 32.625 31.375 C33.07101562 32.00148437 33.51703125 32.62796875 33.9765625 33.2734375 C35 35 35 35 35 37 C35.66 37 36.32 37 37 37 C38.5859375 39.37890625 38.5859375 39.37890625 40.375 42.5625 C40.96023438 43.59503906 41.54546875 44.62757813 42.1484375 45.69140625 C43.06496094 47.32916016 43.06496094 47.32916016 44 49 C44.65226562 50.10859375 45.30453125 51.2171875 45.9765625 52.359375 C66.67434829 88.57799919 69.74217135 131.67816758 59.1015625 171.51953125 C57.78288002 175.68600675 56.14458798 179.56019821 54.22265625 183.48046875 C52.99427252 186.01180264 51.95259984 188.56416356 50.9375 191.1875 C47.92259968 198.78457025 44.33379612 205.19137446 39.48828125 211.80078125 C37.84456861 214.0166234 37.84456861 214.0166234 37 217 C36.34 217 35.68 217 35 217 C34.773125 217.70125 34.54625 218.4025 34.3125 219.125 C32.66158712 222.74128535 30.7091165 225.08769976 28 228 C27.34 228 26.68 228 26 228 C25.7834375 228.54140625 25.566875 229.0828125 25.34375 229.640625 C23.53500003 232.81645344 21.08276201 235.20728081 18.5 237.75 C18.00113281 238.25660156 17.50226563 238.76320313 16.98828125 239.28515625 C13.25341139 243 13.25341139 243 11 243 C11 243.66 11 244.32 11 245 C9.1015625 246.7265625 9.1015625 246.7265625 6.625 248.625 C5.40683594 249.57246094 5.40683594 249.57246094 4.1640625 250.5390625 C2 252 2 252 0 252 C0 252.66 0 253.32 0 254 C-0.969375 254.53625 -1.93875 255.0725 -2.9375 255.625 C-5.74900787 257.21715128 -8.37018686 258.9551175 -11.00390625 260.82421875 C-16.35840297 264.41105738 -22.03754851 266.79280614 -28 269.1875 C-29.02867187 269.61224609 -30.05734375 270.03699219 -31.1171875 270.47460938 C-69.94718492 286.35736277 -112.30546186 285.64317401 -151.05664062 269.82519531 C-159.78623472 266.11840787 -167.97737476 261.6036847 -175.890625 256.3828125 C-177.93568438 254.98367489 -177.93568438 254.98367489 -180 254 C-180 253.34 -180 252.68 -180 252 C-180.7425 251.731875 -181.485 251.46375 -182.25 251.1875 C-184.89061949 250.04723249 -186.85552844 248.90619694 -189 247 C-189 246.34 -189 245.68 -189 245 C-189.66 245 -190.32 245 -191 245 C-191 244.34 -191 243.68 -191 243 C-191.5775 242.731875 -192.155 242.46375 -192.75 242.1875 C-195.05550043 240.97070811 -197.02056192 239.69666121 -199 238 C-199 237.34 -199 236.68 -199 236 C-199.99 235.67 -200.98 235.34 -202 235 C-203.60546875 233.44140625 -203.60546875 233.44140625 -205.1875 231.5625 C-205.71730469 230.94503906 -206.24710938 230.32757813 -206.79296875 229.69140625 C-208 228 -208 228 -208 226 C-208.66 226 -209.32 226 -210 226 C-211.2890625 224.5390625 -211.2890625 224.5390625 -212.625 222.625 C-213.07101563 221.99851562 -213.51703125 221.37203125 -213.9765625 220.7265625 C-215 219 -215 219 -215 217 C-215.66 217 -216.32 217 -217 217 C-217.85078125 215.49373047 -217.85078125 215.49373047 -218.71875 213.95703125 C-220.17590238 211.40509052 -221.67103907 208.88471874 -223.21875 206.38671875 C-227.00900292 200.25795592 -230.67253285 194.30495267 -233.09619141 187.48095703 C-233.9762939 185.06507332 -234.94807545 182.70714573 -235.94140625 180.3359375 C-237.96674161 175.2858655 -239.40156905 170.23335851 -240.625 164.9375 C-240.94247192 163.56960327 -240.94247192 163.56960327 -241.26635742 162.17407227 C-248.1736402 131.39599335 -247.91514724 93.24774695 -232.12890625 65.08984375 C-230.94407214 62.89646573 -230.14179013 60.7240125 -229.3125 58.375 C-227.37906233 53.36892071 -224.69136488 48.92216728 -221.875 44.375 C-221.43067627 43.65103027 -220.98635254 42.92706055 -220.52856445 42.18115234 C-219.41118437 40.41548399 -218.21211461 38.70202853 -217 37 C-216.34 37 -215.68 37 -215 37 C-214.731875 36.2575 -214.46375 35.515 -214.1875 34.75 C-213.04723249 32.10938051 -211.90619694 30.14447156 -210 28 C-209.34 28 -208.68 28 -208 28 C-207.71125 27.401875 -207.4225 26.80375 -207.125 26.1875 C-206 24 -206 24 -204 21 C-203.34 21 -202.68 21 -202 21 C-201.67 20.01 -201.34 19.02 -201 18 C-200.34 18 -199.68 18 -199 18 C-198.67 17.01 -198.34 16.02 -198 15 C-197.34 15 -196.68 15 -196 15 C-196 14.34 -196 13.68 -196 13 C-194.33101325 11.43331541 -192.58803244 9.944819 -190.8125 8.5 C-189.84957031 7.7059375 -188.88664062 6.911875 -187.89453125 6.09375 C-185.2756834 4.19941471 -183.04431404 3.02404713 -180 2 C-180 1.34 -180 0.68 -180 0 C-177.74115708 -1.65566416 -175.50216012 -3.15484509 -173.125 -4.625 C-172.40900635 -5.0686792 -171.6930127 -5.5123584 -170.95532227 -5.96948242 C-120.66064619 -36.34439717 -47.57432432 -37.2934322 0 0 Z M-118 -7 C-119.37492438 -6.69497145 -120.74992559 -6.39028903 -122.125 -6.0859375 C-130.45449637 -4.18340034 -138.2549788 -1.64528464 -146 2 C-146.93610107 2.4333667 -146.93610107 2.4333667 -147.89111328 2.87548828 C-156.95060473 7.09740848 -165.20326003 11.67268782 -173 18 C-173.54897949 18.44359863 -174.09795898 18.88719727 -174.66357422 19.34423828 C-203.44024757 42.77043499 -222.55508294 75.87660434 -226.8190918 112.95849609 C-229.18366431 139.64210655 -224.02974089 165.19377592 -212 189 C-211.55140625 189.9075 -211.1028125 190.815 -210.640625 191.75 C-196.10911809 219.83336167 -171.16279624 241.92881725 -142 254 C-138.74687593 254.69997523 -138.74687593 254.69997523 -136 255 C-139.11749196 251.83054985 -142.30535722 248.78320036 -145.60400391 245.8034668 C-175.48520807 218.73664481 -197.94216316 180.18713272 -200.3125 139.32421875 C-201.33737868 111.54972113 -191.01127285 85.82130226 -173 65 C-172.3090625 64.11828125 -171.618125 63.2365625 -170.90625 62.328125 C-169 60 -169 60 -166.25 57.8125 C-165.5075 57.214375 -164.765 56.61625 -164 56 C-164 55.34 -164 54.68 -164 54 C-163.42636719 53.73316406 -162.85273438 53.46632812 -162.26171875 53.19140625 C-159.91343821 51.95440182 -157.93632997 50.52755324 -155.8125 48.9375 C-131.80366617 32.13831598 -105.76552215 26.17138966 -76.57421875 30.73828125 C-72.29363377 31.55428295 -68.15066856 32.68167885 -64 34 C-62.77796875 34.37382812 -61.5559375 34.74765625 -60.296875 35.1328125 C-46.21123357 39.81768443 -34.29514342 46.52840115 -23 56 C-22.0409375 56.78246094 -21.081875 57.56492187 -20.09375 58.37109375 C-3.69359473 72.39875465 7.073845 92.65949175 10 114 C10.27693429 117.75563484 10.3349407 121.48509157 10.3125 125.25 C10.30686035 126.25289062 10.3012207 127.25578125 10.29541016 128.2890625 C9.93652614 150.40484606 2.10610578 170.21005641 -13.1484375 186.36328125 C-22.32625279 194.8496173 -33.25149458 200.04154029 -45 204 C-45.98742187 204.3403125 -46.97484375 204.680625 -47.9921875 205.03125 C-65.77454833 210.12540111 -86.172367 208.53480226 -102.375 199.75 C-117.20239011 190.46316391 -124.60386292 175.81581504 -128.61181641 159.10205078 C-129.27963069 155.48577341 -129.33950836 151.91916527 -129.3125 148.25 C-129.30831055 147.4657666 -129.30412109 146.6815332 -129.29980469 145.87353516 C-129.00596772 130.62839827 -123.90793042 119.52615286 -113 109 C-103.36286673 100.88347997 -90.29888099 98.84834383 -78.0703125 99.77246094 C-68.30064879 100.84620228 -59.45995542 103.68909065 -51.0390625 108.828125 C-49.10296569 110.16609463 -49.10296569 110.16609463 -47 110 C-46.09618221 114.50926483 -45.44064479 117.80833021 -47.4375 122.0625 C-50.27454702 124.20758434 -52.16516311 124.71215444 -55.71875 124.5 C-59.30453734 123.71407401 -62.32204892 122.07517913 -65.5078125 120.2890625 C-74.3369937 115.72224464 -85.57784252 115.28901629 -95.15234375 117.83984375 C-102.76551491 121.32383733 -107.93253622 127.16465092 -111.4375 134.6875 C-115.2570262 145.51775829 -113.02680323 156.55007506 -109 167 C-107.24027286 170.52886458 -105.25062042 173.7662789 -103 177 C-102.4225 177.9075 -101.845 178.815 -101.25 179.75 C-93.03530033 187.96469967 -82.42687709 191.09996489 -71.0625 191.3125 C-52.2588531 190.80153133 -34.78447454 184.81905322 -21.58984375 170.94140625 C-7.68246979 153.95869161 -5.76147314 134.12506183 -7 113 C-8.90022198 95.41363191 -21.09897079 79.7465767 -33.95703125 68.44921875 C-54.45084792 51.95419558 -79.73791108 43.94194551 -106 46 C-128.92274033 49.30528165 -149.82595978 62.01077946 -163.9765625 80.22265625 C-179.69095162 101.79202047 -186.33008046 125.14505583 -182.61767578 151.73876953 C-176.87883953 182.37073967 -160.04643626 208.50472465 -138 230 C-137.17435547 230.91072266 -137.17435547 230.91072266 -136.33203125 231.83984375 C-124.06236933 244.96387285 -102.10649789 262.97594646 -83.44970703 263.84741211 C-80.25933069 263.79205858 -77.15720489 263.44706853 -74 263 C-72.98035156 262.88527344 -71.96070313 262.77054687 -70.91015625 262.65234375 C-67.89681027 262.2357335 -64.97074768 261.65393817 -62 261 C-60.77925781 260.74347656 -59.55851563 260.48695313 -58.30078125 260.22265625 C-21.80304959 252.11758032 7.84579339 228.46771833 27.75 197.33032227 C45.77638664 168.0022362 51.61327219 131.47685847 44 98 C43.73316406 96.77152344 43.46632813 95.54304688 43.19140625 94.27734375 C37.99470285 72.68215406 27.59011137 53.65549919 13 37 C12.32066406 36.19949219 11.64132812 35.39898437 10.94140625 34.57421875 C-12.53447086 7.34586226 -46.75169117 -6.82114129 -82 -10 C-94.40240733 -10.81395109 -105.91676765 -9.8502786 -118 -7 Z " fill="#0A0606" transform="translate(340,123)"/>
<path d="M0 0 C3.21651249 1.46538154 5.8044549 3.29729731 8.5625 5.5 C14.09747528 10.09645712 14.09747528 10.09645712 21 11 C19.68 10.34 18.36 9.68 17 9 C17.185625 8.2575 17.37125 7.515 17.5625 6.75 C17.9986917 4.00822361 17.75202442 2.60701799 17 0 C20.74236804 3.05499432 24.14247492 6.0480573 27.25 9.75 C30.99620649 14.16882084 35.22896126 17.95928537 39.546875 21.80078125 C41.42827109 23.48744686 43.24112789 25.18836173 45 27 C39.98584474 26.44287164 35.9394886 24.78251342 31.5 22.5 C30.80511475 22.14615234 30.11022949 21.79230469 29.39428711 21.42773438 C18.78283576 15.91880043 8.35736616 9.66689824 0 1 C0 0.67 0 0.34 0 0 Z " fill="#C82B37" transform="translate(159,351)"/>
<path d="M0 0 C9.73227107 17.33816358 4.20483887 46.81857669 -0.74658203 64.90771484 C-2.95868639 72.49280929 -5.73943527 79.79900811 -9 87 C-9.33 87 -9.66 87 -10 87 C-10 85.35 -10 83.7 -10 82 C-9.34 82 -8.68 82 -8 82 C-8 80.35 -8 78.7 -8 77 C-7.34 77 -6.68 77 -6 77 C-5.87496094 75.98292969 -5.74992187 74.96585937 -5.62109375 73.91796875 C-4.85872332 69.1088018 -3.47043595 64.63247526 -2.03515625 59.98828125 C0.69573801 50.06095318 1.29934512 40.25146179 1.20581055 30.01489258 C1.18724789 27.90889679 1.18530371 25.80333573 1.18554688 23.69726562 C1.33256769 16.74761611 1.33256769 16.74761611 0 10 C-0.06802967 8.27204648 -0.08495645 6.54164635 -0.0625 4.8125 C-0.05347656 3.91144531 -0.04445313 3.01039063 -0.03515625 2.08203125 C-0.02355469 1.39496094 -0.01195312 0.70789063 0 0 Z " fill="#AA2A31" transform="translate(383,221)"/>
<path d="M0 0 C0.33 0 0.66 0 1 0 C2.61472474 10.01565753 2.61472474 10.01565753 0 14 C-2.125 14.8125 -2.125 14.8125 -4 15 C-4.0825 15.9075 -4.165 16.815 -4.25 17.75 C-5.12714084 21.55094363 -6.28666873 22.31626871 -9 25 C-10.64791638 27.60197323 -12.13272737 30.26385322 -13.6328125 32.953125 C-14.08398438 33.62859375 -14.53515625 34.3040625 -15 35 C-15.66 35 -16.32 35 -17 35 C-17.268125 35.763125 -17.53625 36.52625 -17.8125 37.3125 C-18.99415892 39.98678071 -19.64353655 41.31681182 -22 43 C-25.1875 43.6875 -25.1875 43.6875 -28 44 C-27.27425781 43.27683594 -26.54851562 42.55367188 -25.80078125 41.80859375 C-13.13722876 29.10971755 -5.40175294 17.08823768 0 0 Z " fill="#B52D3A" transform="translate(348,272)"/>
<path d="M0 0 C-3.35228836 1.11742945 -4.73129668 0.84727505 -8.125 0.125 C-9.01445312 -0.05804688 -9.90390625 -0.24109375 -10.8203125 -0.4296875 C-13 -1 -13 -1 -14 -2 C-15.155 -2.165 -16.31 -2.33 -17.5 -2.5 C-21 -3 -21 -3 -22 -4 C-23.99782126 -4.15825258 -26.00088834 -4.25119171 -28.00390625 -4.31640625 C-29.21884766 -4.35830078 -30.43378906 -4.40019531 -31.68554688 -4.44335938 C-32.96494141 -4.48267578 -34.24433594 -4.52199219 -35.5625 -4.5625 C-36.84576172 -4.60568359 -38.12902344 -4.64886719 -39.45117188 -4.69335938 C-42.63399853 -4.799848 -45.81690674 -4.90185962 -49 -5 C-49 -4.34 -49 -3.68 -49 -3 C-50.74784829 -2.63536268 -52.49840502 -2.2836922 -54.25 -1.9375 C-55.71179688 -1.64166016 -55.71179688 -1.64166016 -57.203125 -1.33984375 C-59.868119 -1.01602465 -61.48871723 -1.14496801 -64 -2 C-61.93847611 -2.64894237 -59.87573742 -3.2940264 -57.8125 -3.9375 C-56.66394531 -4.29714844 -55.51539063 -4.65679687 -54.33203125 -5.02734375 C-36.45413111 -10.24609772 -17.05579618 -6.36362092 0 0 Z " fill="#C22F3B" transform="translate(280,176)"/>
<path d="M0 0 C0.66 0.33 1.32 0.66 2 1 C-1.79692186 3.82561627 -4.18569279 5.56638908 -9 5 C-9 5.66 -9 6.32 -9 7 C-19.057596 10.09890166 -28.58415286 11.40658616 -39.125 11.4375 C-40.19097412 11.44716797 -41.25694824 11.45683594 -42.35522461 11.46679688 C-48.33307978 11.40256457 -52.70657964 10.82665648 -58 8 C-54.61898219 6.87299406 -53.39998256 7.25525991 -50 8 C-32.91257448 9.20170565 -17.52154956 7.79541836 -1.8203125 0.63671875 C-1.21960938 0.42660156 -0.61890625 0.21648437 0 0 Z " fill="#B52D37" transform="translate(308,322)"/>
<path d="M0 0 C0 0.66 0 1.32 0 2 C0.94875 2.144375 1.8975 2.28875 2.875 2.4375 C6 3 6 3 8 4 C8 4.66 8 5.32 8 6 C6.2675 5.4121875 6.2675 5.4121875 4.5 4.8125 C2.66758652 4.20554916 0.83408434 3.60188297 -1 3 C-2.24523437 2.59007812 -3.49046875 2.18015625 -4.7734375 1.7578125 C-19.59402984 -3.05355691 -33.45292247 -4.46740272 -49 -5 C-49 -5.33 -49 -5.66 -49 -6 C-33.58068774 -9.4327666 -14.41242057 -6.13925753 0 0 Z " fill="#AF2932" transform="translate(286,157)"/>
<path d="M0 0 C0.94875 0.825 1.8975 1.65 2.875 2.5 C7.48450321 6.45641138 12.24034752 10.22675437 17 14 C12.20186483 15.59937839 8.91099556 12.87563576 4.515625 10.76171875 C-9.67457376 3.65085248 -9.67457376 3.65085248 -11 1 C-10.34 1.268125 -9.68 1.53625 -9 1.8125 C-5.35060933 3.25705047 -1.67754567 4.62871178 2 6 C1.34 4.02 0.68 2.04 0 0 Z " fill="#C52D3A" transform="translate(187,363)"/>
<path d="M0 0 C0.33 0 0.66 0 1 0 C2.58536388 7.47398794 3.35545576 14.61298622 3.3125 22.25 C3.30839111 23.74345947 3.30839111 23.74345947 3.30419922 25.26708984 C3.16398272 35.24180128 1.95337403 44.75254248 -2 54 C-2.33 54 -2.66 54 -3 54 C-3.25 48.375 -3.25 48.375 -1 45 C0.18816282 39.97456341 0.12986654 35.01339308 0.09765625 29.8828125 C0.0962413 29.02565643 0.09482635 28.16850037 0.09336853 27.28536987 C0.08780022 24.5652101 0.07525364 21.84513462 0.0625 19.125 C0.0574809 17.27343869 0.05291871 15.42187609 0.04882812 13.5703125 C0.03784117 9.04684285 0.02059852 4.52343568 0 0 Z " fill="#380305" transform="translate(348,226)"/>
<path d="M0 0 C0.33 0 0.66 0 1 0 C0.35056821 13.63806765 -4.4087096 26.65157567 -10 39 C-10.33 39 -10.66 39 -11 39 C-11 37.35 -11 35.7 -11 34 C-10.34 34 -9.68 34 -9 34 C-9 32.35 -9 30.7 -9 29 C-8.34 29 -7.68 29 -7 29 C-6.87496094 27.98808594 -6.74992187 26.97617187 -6.62109375 25.93359375 C-6.02747816 22.17402837 -5.14871917 18.7064579 -4.0625 15.0625 C-2.59470492 10.06132186 -1.21623817 5.06765902 0 0 Z " fill="#B92E3A" transform="translate(384,269)"/>
<path d="M0 0 C4.30852884 3.1061487 7.08240306 6.5058684 10.0625 10.8125 C10.48337891 11.40353516 10.90425781 11.99457031 11.33789062 12.60351562 C14.15266211 16.60529152 16.76555726 20.64364041 19 25 C18.67 25.66 18.34 26.32 18 27 C17.34 25.68 16.68 24.36 16 23 C15.01 23 14.02 23 13 23 C11.09693064 20.41182567 10.02104348 18.06733915 9.0625 15 C7.89234858 11.69604304 6.22639838 9.67167806 4 7 C4 6.34 4 5.68 4 5 C3.34 5 2.68 5 2 5 C1.34 3.35 0.68 1.7 0 0 Z " fill="#C12D39" transform="translate(351,159)"/>
<path d="M0 0 C0.74652832 0.00926514 1.49305664 0.01853027 2.26220703 0.02807617 C3.02291504 0.03411865 3.78362305 0.04016113 4.56738281 0.04638672 C21.13939846 0.33415588 21.13939846 0.33415588 25.20751953 3.85229492 C25.79146484 4.55805664 25.79146484 4.55805664 26.38720703 5.27807617 C25.44103516 5.14530273 24.49486328 5.0125293 23.52001953 4.87573242 C13.15453997 3.47406098 2.8343155 2.73755548 -7.61279297 2.27807617 C-5.07995646 -0.25476034 -3.45795446 0.02030344 0 0 Z " fill="#190000" transform="translate(241.61279296875,166.721923828125)"/>
<path d="M0 0 C-3.55925024 1.95848191 -7.25819306 3.09370151 -11.125 4.3125 C-16.74700832 6.12038028 -21.94218342 8.24993235 -27.14453125 11.08203125 C-29 12 -29 12 -31 12 C-31 11.34 -31 10.68 -31 10 C-30.34 10 -29.68 10 -29 10 C-29 9.34 -29 8.68 -29 8 C-28.36191406 7.80664062 -27.72382813 7.61328125 -27.06640625 7.4140625 C-26.24011719 7.15367187 -25.41382813 6.89328125 -24.5625 6.625 C-23.73878906 6.36976563 -22.91507813 6.11453125 -22.06640625 5.8515625 C-19.82201984 5.19117773 -19.82201984 5.19117773 -19 3 C-12.72164492 0.59458452 -6.68109279 -0.37817506 0 0 Z " fill="#C12D39" transform="translate(224,153)"/>
<path d="M0 0 C3.36338044 3.36338044 4 6.28835716 4 11 C4.66 11.33 5.32 11.66 6 12 C6 12.99 6 13.98 6 15 C6.61875 15.309375 7.2375 15.61875 7.875 15.9375 C9.25 16.625 10.625 17.3125 12 18 C12.12375 18.804375 12.2475 19.60875 12.375 20.4375 C12.72567164 23.15983399 12.72567164 23.15983399 15.0625 24.3125 C15.701875 24.539375 16.34125 24.76625 17 25 C17 25.66 17 26.32 17 27 C10.3217941 24.95588828 7.52947495 19.71052836 4 14 C1.61469746 9.22275062 0 5.37482006 0 0 Z " fill="#C02B3B" transform="translate(229,280)"/>
<path d="M0 0 C0.66 0 1.32 0 2 0 C2.0867562 4.29154022 2.1403089 8.58285668 2.1875 12.875 C2.21263672 14.09832031 2.23777344 15.32164062 2.26367188 16.58203125 C2.27333984 17.74863281 2.28300781 18.91523438 2.29296875 20.1171875 C2.3086792 21.19597168 2.32438965 22.27475586 2.34057617 23.38623047 C2.17199097 24.68004639 2.17199097 24.68004639 2 26 C1.01 26.66 0.02 27.32 -1 28 C-0.67 18.76 -0.34 9.52 0 0 Z " fill="#270001" transform="translate(333,236)"/>
<path d="M0 0 C0.83595703 0.00451172 1.67191406 0.00902344 2.53320312 0.01367188 C4.58466649 0.02539452 6.63609273 0.04332797 8.6875 0.0625 C8.6875 0.3925 8.6875 0.7225 8.6875 1.0625 C-1.7075 1.5575 -1.7075 1.5575 -12.3125 2.0625 C-12.3125 2.7225 -12.3125 3.3825 -12.3125 4.0625 C-14.06034829 4.42713732 -15.81090502 4.7788078 -17.5625 5.125 C-19.02429688 5.42083984 -19.02429688 5.42083984 -20.515625 5.72265625 C-23.180619 6.04647535 -24.80121723 5.91753199 -27.3125 5.0625 C-25.25097611 4.41355763 -23.18823742 3.7684736 -21.125 3.125 C-19.97644531 2.76535156 -18.82789063 2.40570313 -17.64453125 2.03515625 C-11.59332935 0.26874444 -6.26909203 -0.06432375 0 0 Z " fill="#AF2D38" transform="translate(243.3125,168.9375)"/>
<path d="M0 0 C3.43928828 1.03178648 6.37993906 2.22261103 9.4375 4.0625 C14.95225006 6.85545406 20.45085196 6.4381314 26.5 6.25 C27.60859375 6.23195313 28.7171875 6.21390625 29.859375 6.1953125 C32.57383296 6.1485115 35.28644716 6.08296375 38 6 C38 6.33 38 6.66 38 7 C32.85982504 8.13345108 27.93348866 8.25758735 22.6875 8.3125 C21.77548828 8.34150391 20.86347656 8.37050781 19.92382812 8.40039062 C13.56502361 8.4596483 9.4165944 7.2511555 4 4 C2.67139632 3.32395674 1.33920812 2.65478533 0 2 C0 1.34 0 0.68 0 0 Z " fill="#390607" transform="translate(236,379)"/>
<path d="M0 0 C0.99384397 3.25258026 1.04826731 6.03465371 0.87890625 9.421875 C0.83056641 10.44667969 0.78222656 11.47148437 0.73242188 12.52734375 C0.67634766 13.59082031 0.62027344 14.65429688 0.5625 15.75 C0.51029297 16.82894531 0.45808594 17.90789062 0.40429688 19.01953125 C0.27480531 21.67999422 0.13984639 24.34006452 0 27 C-0.66 26.67 -1.32 26.34 -2 26 C-2.05785647 22.04172765 -2.09354717 18.0835633 -2.125 14.125 C-2.14175781 12.99707031 -2.15851563 11.86914062 -2.17578125 10.70703125 C-2.18222656 9.63066406 -2.18867188 8.55429688 -2.1953125 7.4453125 C-2.20578613 6.45031738 -2.21625977 5.45532227 -2.22705078 4.43017578 C-2 2 -2 2 0 0 Z " fill="#260101" transform="translate(157,245)"/>
<path d="M0 0 C0.66 0 1.32 0 2 0 C1.00139494 4.51476363 -0.0036337 9.02778692 -1.03515625 13.53515625 C-1.20466797 14.28216797 -1.37417969 15.02917969 -1.54882812 15.79882812 C-1.89231095 17.31250339 -2.23868361 18.82552568 -2.58789062 20.33789062 C-3.68805814 25.21487842 -4.45276685 30.02976902 -5 35 C-5.33 35 -5.66 35 -6 35 C-6.05451714 32.95863605 -6.09302485 30.91684144 -6.125 28.875 C-6.14820312 27.73804688 -6.17140625 26.60109375 -6.1953125 25.4296875 C-5.9948767 21.91003487 -5.20513955 19.29404811 -4 16 C-3.63557767 14.33985384 -3.30027117 12.67293936 -3 11 C-2.2778101 7.2056372 -1.33854722 3.6331996 0 0 Z " fill="#220000" transform="translate(119,203)"/>
<path d="M0 0 C0 0.33 0 0.66 0 1 C-12.375 1.495 -12.375 1.495 -25 2 C-25 2.66 -25 3.32 -25 4 C-28.63 4 -32.26 4 -36 4 C-26.42521671 -2.38318886 -11.02742192 -0.19789989 0 0 Z " fill="#98252E" transform="translate(258,113)"/>
<path d="M0 0 C4.52536666 0.53239608 7.38839627 2.27123273 11 5 C13.4294516 8.6441774 13.16179575 10.71241272 13 15 C12.34 15 11.68 15 11 15 C11 16.32 11 17.64 11 19 C9.68 18.67 8.36 18.34 7 18 C7.515625 17.525625 8.03125 17.05125 8.5625 16.5625 C10.73486467 12.69002384 9.75333154 9.24770076 9 5 C8.2575 4.731875 7.515 4.46375 6.75 4.1875 C4.13363446 3.05770579 2.19812889 1.79106798 0 0 Z " fill="#BA2C39" transform="translate(284,228)"/>
<path d="M0 0 C0.66 0.66 1.32 1.32 2 2 C1.67 2.66 1.34 3.32 1 4 C3.64 4.33 6.28 4.66 9 5 C9 5.66 9 6.32 9 7 C13.29 7 17.58 7 22 7 C22 7.33 22 7.66 22 8 C12.1921658 8.52935837 4.21113311 7.42739837 -5 4 C-4.360625 3.71125 -3.72125 3.4225 -3.0625 3.125 C-0.84793921 2.17176549 -0.84793921 2.17176549 0 0 Z " fill="#B32935" transform="translate(254,306)"/>
<path d="M0 0 C1 3 1 3 -0.3125 5.6875 C-0.869375 6.450625 -1.42625 7.21375 -2 8 C-2.66 8 -3.32 8 -4 8 C-4.33 10.64 -4.66 13.28 -5 16 C-5.66 16 -6.32 16 -7 16 C-7 18.64 -7 21.28 -7 24 C-7.66 24 -8.32 24 -9 24 C-8.779033 14.55868253 -5.79289271 7.41896785 0 0 Z " fill="#280203" transform="translate(220,238)"/>
<path d="M0 0 C0.66 0.33 1.32 0.66 2 1 C1.66226563 2.09957031 1.32453125 3.19914063 0.9765625 4.33203125 C-1.49826182 12.49793458 -3.77484221 20.53361111 -5 29 C-5.33 29 -5.66 29 -6 29 C-6.28100502 21.83437211 -5.20443195 15.05453001 -4 8 C-3.34 8 -2.68 8 -2 8 C-1.855625 6.865625 -1.71125 5.73125 -1.5625 4.5625 C-1 1 -1 1 0 0 Z " fill="#BC2F3A" transform="translate(145,219)"/>
<path d="M0 0 C1.48280196 0.78483659 2.9611498 1.57809334 4.4375 2.375 C5.67306641 3.03628906 5.67306641 3.03628906 6.93359375 3.7109375 C9 5 9 5 10 7 C9.34 7 8.68 7 8 7 C8 7.66 8 8.32 8 9 C5.3364031 8.64005447 3.41816548 8.28838998 1.1875 6.75 C-0.38765088 4.42872502 -0.08538128 2.75017605 0 0 Z " fill="#CF2A35" transform="translate(320,133)"/>
<path d="M0 0 C0.33 0.99 0.66 1.98 1 3 C-0.55476385 4.77816682 -2.11816024 6.54727102 -3.6875 8.3125 C-4.55761719 9.29863281 -5.42773438 10.28476562 -6.32421875 11.30078125 C-8.78749661 13.78563526 -10.84522538 15.51129034 -14 17 C-14.66 16.67 -15.32 16.34 -16 16 C-15.58637207 15.62190186 -15.17274414 15.24380371 -14.74658203 14.85424805 C-12.86972107 13.13524158 -10.99733198 11.41143776 -9.125 9.6875 C-8.47402344 9.09259766 -7.82304687 8.49769531 -7.15234375 7.88476562 C-6.52714844 7.30791016 -5.90195312 6.73105469 -5.2578125 6.13671875 C-4.6817627 5.60780029 -4.10571289 5.07888184 -3.51220703 4.53393555 C-1.77726107 2.87076805 -1.77726107 2.87076805 0 0 Z " fill="#250101" transform="translate(352,340)"/>
<path d="M0 0 C1.32 0.33 2.64 0.66 4 1 C2.38462556 4.89917968 -0.27924873 7.71293772 -3.125 10.75 C-3.59292969 11.25660156 -4.06085938 11.76320313 -4.54296875 12.28515625 C-5.69126541 13.52719141 -6.84508672 14.76411494 -8 16 C-8.66 15.01 -9.32 14.02 -10 13 C-9.67 12.34 -9.34 11.68 -9 11 C-7.68 11 -6.36 11 -5 11 C-5 10.34 -5 9.68 -5 9 C-4.34 9 -3.68 9 -3 9 C-3 8.01 -3 7.02 -3 6 C-2.01 5.34 -1.02 4.68 0 4 C0 2.68 0 1.36 0 0 Z " fill="#BB2B34" transform="translate(352,334)"/>
<path d="M0 0 C0.33 0.99 0.66 1.98 1 3 C0.505 3.433125 0.01 3.86625 -0.5 4.3125 C-2.33218192 5.99740483 -2.33218192 5.99740483 -2 9 C-2.66 9 -3.32 9 -4 9 C-4.2475 9.598125 -4.495 10.19625 -4.75 10.8125 C-6.16370012 13.28647521 -7.65055383 14.43370255 -10 16 C-9.52112335 11.23735403 -7.50511358 8.77358348 -4.4375 5.1875 C-3.61121094 4.21167969 -2.78492188 3.23585937 -1.93359375 2.23046875 C-1.29550781 1.49441406 -0.65742188 0.75835937 0 0 Z " fill="#230203" transform="translate(166,188)"/>
<path d="M0 0 C0.99 0.33 1.98 0.66 3 1 C1.71922406 4.84232783 0.44625619 5.00882976 -3 7 C-5.05680792 8.60778647 -7.0201325 10.29639308 -9 12 C-7.88081459 6.77713475 -5.6539919 4.36488719 -1.75390625 1.00390625 C-1.17511719 0.67261719 -0.59632813 0.34132812 0 0 Z " fill="#1A0102" transform="translate(178,176)"/>
<path d="M0 0 C0.33 0.66 0.66 1.32 1 2 C0.02616054 3.68208635 -0.97695052 5.34738161 -2 7 C-2.69579454 9.19130534 -2.69579454 9.19130534 -3 11 C-3.66 11 -4.32 11 -5 11 C-5.12375 11.7425 -5.2475 12.485 -5.375 13.25 C-5.95486701 15.80141485 -6.73708739 17.7267573 -8 20 C-8.66 20 -9.32 20 -10 20 C-8.6128558 15.40639183 -6.73993255 11.39340498 -4.4375 7.1875 C-3.50744141 5.47626953 -3.50744141 5.47626953 -2.55859375 3.73046875 C-1 1 -1 1 0 0 Z " fill="#B62C38" transform="translate(172,209)"/>
<path d="M0 0 C2.97 0.495 2.97 0.495 6 1 C6.061875 1.86625 6.12375 2.7325 6.1875 3.625 C7.23122656 7.96047956 8.99278171 9.76145723 12 13 C11.67 13.66 11.34 14.32 11 15 C6.62294157 10.26638344 2.9826263 5.7266425 0 0 Z " fill="#B92C37" transform="translate(136,325)"/>
<path d="M0 0 C2.375 0.3125 2.375 0.3125 5 1 C7 4 7 4 7 7 C1.25 6.25 1.25 6.25 -1 4 C-0.625 1.875 -0.625 1.875 0 0 Z " fill="#DC2632" transform="translate(182,362)"/>
<path d="M0 0 C0.33 0 0.66 0 1 0 C2.58919293 9.85729131 2.58919293 9.85729131 0 14 C-0.99 14.33 -1.98 14.66 -3 15 C-2.22095672 4.44191344 -2.22095672 4.44191344 0 0 Z " fill="#CD2937" transform="translate(348,272)"/>
<path d="M0 0 C1.32898145 4.47389937 1.06182694 8.47919138 0 13 C-1.9375 16.0625 -1.9375 16.0625 -4 18 C-4.66 18 -5.32 18 -6 18 C-4 12 -2 6 0 0 Z " fill="#2D0304" transform="translate(331,266)"/>
<path d="M0 0 C-2.13089123 1.06790623 -4.26423822 2.13018566 -6.40234375 3.18359375 C-10.70200064 5.31023452 -14.9422462 7.43008926 -19 10 C-19 8.68 -19 7.36 -19 6 C-17.68 6 -16.36 6 -15 6 C-15 5.34 -15 4.68 -15 4 C-13.44219668 3.32243118 -11.87849904 2.65840543 -10.3125 2 C-9.44238281 1.62875 -8.57226562 1.2575 -7.67578125 0.875 C-4.9427998 -0.01870488 -2.85299066 -0.16449676 0 0 Z " fill="#BB2D3B" transform="translate(244,223)"/>
<path d="M0 0 C1.875 0.25 1.875 0.25 4 1 C5.125 3 5.125 3 6 5 C6.66 5.33 7.32 5.66 8 6 C8.33 6.99 8.66 7.98 9 9 C10.62652316 10.70586575 12.29006566 12.3777546 14 14 C13.67 14.66 13.34 15.32 13 16 C11.39039445 14.27563834 9.78735966 12.54586672 8.1875 10.8125 C6.84751953 9.36810547 6.84751953 9.36810547 5.48046875 7.89453125 C3.30297922 5.35355528 1.60807526 2.92231617 0 0 Z " fill="#BB2D3A" transform="translate(183,331)"/>
<path d="M0 0 C0.33 0 0.66 0 1 0 C1.06058594 1.14339844 1.12117187 2.28679687 1.18359375 3.46484375 C1.26798428 4.95574305 1.35263302 6.44662775 1.4375 7.9375 C1.47681641 8.69224609 1.51613281 9.44699219 1.55664062 10.22460938 C1.44038024 13.91944187 1.44038024 13.91944187 3 17 C3.07179964 18.51928038 3.08392007 20.04167482 3.0625 21.5625 C3.05347656 22.38878906 3.04445312 23.21507812 3.03515625 24.06640625 C3.02355469 24.70449219 3.01195312 25.34257812 3 26 C0.78185014 21.8594536 -0.13119556 18.36737866 -0.09765625 13.671875 C-0.09282227 12.47304688 -0.09282227 12.47304688 -0.08789062 11.25 C-0.07951172 10.425 -0.07113281 9.6 -0.0625 8.75 C-0.05798828 7.90953125 -0.05347656 7.0690625 -0.04882812 6.203125 C-0.03707961 4.13538599 -0.01914522 2.06768376 0 0 Z " fill="#300204" transform="translate(210,262)"/>
<path d="M0 0 C3.53191322 3.43153914 6.7137505 6.97375062 9.8125 10.8125 C10.60269531 11.78832031 11.39289063 12.76414062 12.20703125 13.76953125 C13.09455078 14.87361328 13.09455078 14.87361328 14 16 C13.34 16.33 12.68 16.66 12 17 C0 3.68587896 0 3.68587896 0 0 Z " fill="#2A0203" transform="translate(137,328)"/>
<path d="M0 0 C1 3 1 3 0.3125 4.9375 C-1.19518802 7.30672403 -3.01661039 9.01661039 -5 11 C-5.53625 11.9075 -6.0725 12.815 -6.625 13.75 C-7.305625 14.86375 -7.305625 14.86375 -8 16 C-8.66 16 -9.32 16 -10 16 C-8.56058464 12.96200316 -6.88346492 10.22031941 -5 7.4375 C-4.484375 6.67308594 -3.96875 5.90867188 -3.4375 5.12109375 C-2.963125 4.42113281 -2.48875 3.72117188 -2 3 C-1.34 2.01 -0.68 1.02 0 0 Z " fill="#B62C38" transform="translate(143,164)"/>
<path d="M0 0 C0.721875 0.309375 1.44375 0.61875 2.1875 0.9375 C4.80307309 1.92560539 7.25118982 2.5287754 10 3 C9.67 4.32 9.34 5.64 9 7 C10.32 7.33 11.64 7.66 13 8 C13.33 9.32 13.66 10.64 14 12 C9.21586287 8.46653832 4.47785614 4.91812412 0 1 C0 0.67 0 0.34 0 0 Z " fill="#B92B37" transform="translate(311,173)"/>
<path d="M0 0 C2.31 0.66 4.62 1.32 7 2 C7.103125 2.598125 7.20625 3.19625 7.3125 3.8125 C8.08876455 6.28243264 9.07088921 7.32251235 11 9 C10.67 9.66 10.34 10.32 10 11 C8.51450044 9.73657512 7.03678811 8.4639897 5.5625 7.1875 C4.73878906 6.47980469 3.91507813 5.77210938 3.06640625 5.04296875 C1 3 1 3 0 0 Z " fill="#C12D39" transform="translate(197,347)"/>
<path d="M0 0 C0.99 0.33 1.98 0.66 3 1 C-1.18461538 6.78461538 -1.18461538 6.78461538 -5.3125 7.875 C-6.6428125 7.936875 -6.6428125 7.936875 -8 8 C-5.33333333 5.33333333 -2.66666667 2.66666667 0 0 Z " fill="#CC2B3A" transform="translate(328,308)"/>
<path d="M0 0 C4.67105792 1.55701931 8.08705685 4.08447373 12 7 C8.98968256 7.93423645 8.13349732 8.04449911 5 7 C5 6.01 5 5.02 5 4 C4.01 3.67 3.02 3.34 2 3 C1.34 2.67 0.68 2.34 0 2 C0 1.34 0 0.68 0 0 Z " fill="#C42C38" transform="translate(292,183)"/>
<path d="M0 0 C1.35032223 3.72688936 0.63396009 6.35759856 -0.375 10.125 C-0.65085937 11.17945313 -0.92671875 12.23390625 -1.2109375 13.3203125 C-2 16 -2 16 -3 18 C-3.66 18 -4.32 18 -5 18 C-3.36959185 11.98922864 -1.72852643 5.98336072 0 0 Z " fill="#340305" transform="translate(382,283)"/>
<path d="M0 0 C1.30660357 4.29727397 0.6596762 7.60215865 0 12 C-0.66 12 -1.32 12 -2 12 C-2.33 13.65 -2.66 15.3 -3 17 C-4.56393356 13.02623171 -3.36145292 10.18622097 -2.0625 6.25 C-1.68222656 5.07953125 -1.30195312 3.9090625 -0.91015625 2.703125 C-0.60980469 1.81109375 -0.30945313 0.9190625 0 0 Z " fill="#AC2C34" transform="translate(121,203)"/>
<path d="M0 0 C2.14909962 2.76854598 4.01778828 5.57834526 5.75 8.625 C6.19859375 9.40101563 6.6471875 10.17703125 7.109375 10.9765625 C7.40328125 11.64429688 7.6971875 12.31203125 8 13 C7.67 13.66 7.34 14.32 7 15 C3.16487133 12.44324756 2.57058038 10.28340103 1 6 C0.60235737 4.01178687 0.24544834 2.01267638 0 0 Z " fill="#B82D38" transform="translate(153,315)"/>
<path d="M0 0 C1.32 0.33 2.64 0.66 4 1 C5.125 3.75 5.125 3.75 6 7 C6.391875 7.886875 6.78375 8.77375 7.1875 9.6875 C8 12 8 12 7 15 C4.69 10.05 2.38 5.1 0 0 Z " fill="#B92D38" transform="translate(337,200)"/>
<path d="M0 0 C0.66 0.66 1.32 1.32 2 2 C1.01 2.33 0.02 2.66 -1 3 C-1.33 4.65 -1.66 6.3 -2 8 C-3.65 8.33 -5.3 8.66 -7 9 C-5.03681826 5.46627288 -2.95929119 2.75520215 0 0 Z " fill="#C92B3A" transform="translate(182,197)"/>
<path d="M0 0 C5.98993047 -0.3152595 9.63560356 0.31780178 15 3 C15 3.66 15 4.32 15 5 C13.24859857 4.54705135 11.49892656 4.08741252 9.75 3.625 C8.77546875 3.36976563 7.8009375 3.11453125 6.796875 2.8515625 C4.34162697 2.10401491 2.24382595 1.22876183 0 0 Z " fill="#AF2B33" transform="translate(269,223)"/>
<path d="M0 0 C2.31 0.33 4.62 0.66 7 1 C7.103125 1.639375 7.20625 2.27875 7.3125 2.9375 C7.539375 3.618125 7.76625 4.29875 8 5 C8.99 5.33 9.98 5.66 11 6 C10.01 6.495 10.01 6.495 9 7 C7.4972763 6.02501855 5.99788037 5.04490611 4.5 4.0625 C3.6646875 3.51722656 2.829375 2.97195313 1.96875 2.41015625 C1.3190625 1.94480469 0.669375 1.47945313 0 1 C0 0.67 0 0.34 0 0 Z " fill="#BE2D39" transform="translate(224,370)"/>
<path d="M0 0 C0.66 0.33 1.32 0.66 2 1 C1.06409496 2.1055189 0.12620142 3.20935453 -0.8125 4.3125 C-1.33457031 4.92738281 -1.85664063 5.54226562 -2.39453125 6.17578125 C-3.87172469 7.85424679 -5.40039131 9.43882034 -7 11 C-7 9.68 -7 8.36 -7 7 C-6.34 6.67 -5.68 6.34 -5 6 C-4.87625 5.360625 -4.7525 4.72125 -4.625 4.0625 C-4 2 -4 2 -2.0625 0.6875 C-1.381875 0.460625 -0.70125 0.23375 0 0 Z " fill="#BA2E38" transform="translate(222,234)"/>
<path d="M0 0 C-1.15665134 3.46995401 -2.18075554 3.88556665 -5 6 C-5.33 6.99 -5.66 7.98 -6 9 C-7.65 9 -9.3 9 -11 9 C-9.33333333 7.33333333 -7.66666667 5.66666667 -6 4 C-5.278125 3.236875 -4.55625 2.47375 -3.8125 1.6875 C-2 0 -2 0 0 0 Z " fill="#B92C35" transform="translate(194,187)"/>
<path d="M0 0 C5.67276511 -0.29341888 8.99067246 -0.00559652 14 3 C14 3.66 14 4.32 14 5 C12.41531323 4.54636829 10.83230076 4.08688548 9.25 3.625 C8.36828125 3.36976563 7.4865625 3.11453125 6.578125 2.8515625 C4.23919428 2.0790066 2.16557438 1.16374324 0 0 Z " fill="#320304" transform="translate(268,172)"/>
<path d="M0 0 C5.2858549 -0.50341475 7.86554151 0.73089329 12 4 C12.33 4.66 12.66 5.32 13 6 C8.52761347 4.58192622 4.28853694 2.88695626 0 1 C0 0.67 0 0.34 0 0 Z " fill="#300404" transform="translate(301,123)"/>
<path d="M0 0 C2.91517292 1.07401108 4.77810176 1.77810176 7 4 C7 4.99 7 5.98 7 7 C1.25 6.25 1.25 6.25 -1 4 C0.65 4 2.3 4 4 4 C2.68 2.68 1.36 1.36 0 0 Z " fill="#300505" transform="translate(199,373)"/>
<path d="M0 0 C-1.40751221 0.86916887 -2.8264521 1.71985149 -4.25 2.5625 C-5.03890625 3.03816406 -5.8278125 3.51382812 -6.640625 4.00390625 C-9.30844625 5.13022151 -10.34501768 5.0169313 -13 4 C-12.01 3.67 -11.02 3.34 -10 3 C-9.67 2.34 -9.34 1.68 -9 1 C-5.50639525 -0.79401325 -3.71425351 -1.11665191 0 0 Z " fill="#BF2D39" transform="translate(320,368)"/>
<path d="M0 0 C0.33 0 0.66 0 1 0 C1.61528766 5.07612318 -0.38341651 7.82982006 -3 12 C-3.66 12 -4.32 12 -5 12 C-3.68938409 7.76570244 -2.05643741 3.92592596 0 0 Z " fill="#300306" transform="translate(374,306)"/>
<path d="M0 0 C0.66 0 1.32 0 2 0 C0.58192622 4.47238653 -1.11304374 8.71146306 -3 13 C-3.33 13 -3.66 13 -4 13 C-4.5497272 7.36529617 -2.95047835 4.61012242 0 0 Z " fill="#290202" transform="translate(165,217)"/>
<path d="M0 0 C0.66 0.33 1.32 0.66 2 1 C1.19185349 2.33597652 0.37836819 3.668725 -0.4375 5 C-0.88996094 5.7425 -1.34242188 6.485 -1.80859375 7.25 C-2.20175781 7.8275 -2.59492188 8.405 -3 9 C-3.33 9 -3.66 9 -4 9 C-4.125 3.25 -4.125 3.25 -3 1 C-2.01 0.67 -1.02 0.34 0 0 Z " fill="#C52B39" transform="translate(159,194)"/>
<path d="M0 0 C0 0.66 0 1.32 0 2 C-6.45 6.09326923 -6.45 6.09326923 -9.234375 5.62109375 C-9.81703125 5.41613281 -10.3996875 5.21117187 -11 5 C-9.54462432 4.16151196 -8.08559627 3.32936066 -6.625 2.5 C-5.81289062 2.0359375 -5.00078125 1.571875 -4.1640625 1.09375 C-2 0 -2 0 0 0 Z " fill="#B62C36" transform="translate(214,175)"/>
<path d="M0 0 C2.10353495 -0.0810206 4.20795952 -0.13919907 6.3125 -0.1875 C7.48425781 -0.22230469 8.65601563 -0.25710937 9.86328125 -0.29296875 C13 0 13 0 16 3 C10.72 2.34 5.44 1.68 0 1 C0 0.67 0 0.34 0 0 Z " fill="#3B0608" transform="translate(252,169)"/>
<path d="M0 0 C2.31 1.65 4.62 3.3 7 5 C2.82412255 6.39195915 0.86525224 4.82323219 -3 3 C-2.01 2.67 -1.02 2.34 0 2 C0 1.34 0 0.68 0 0 Z " fill="#A73036" transform="translate(197,372)"/>
<path d="M0 0 C0.33 1.32 0.66 2.64 1 4 C-1.97 6.475 -1.97 6.475 -5 9 C-5 4.61031544 -2.87194899 3.23094261 0 0 Z " fill="#1E0201" transform="translate(322,288)"/>
<path d="M0 0 C2.40034102 3.60051153 4.32187705 6.96144535 3.625 11.375 C3.41875 11.91125 3.2125 12.4475 3 13 C0.89172945 9.83759418 0.66182535 8.49342531 0.375 4.8125 C0.30023438 3.91144531 0.22546875 3.01039063 0.1484375 2.08203125 C0.09945312 1.39496094 0.05046875 0.70789063 0 0 Z " fill="#2D0204" transform="translate(116,281)"/>
<path d="M0 0 C0.66 0.33 1.32 0.66 2 1 C0.94660446 4.27723056 -0.63763259 5.60460094 -3.5 7.3125 C-4.655 7.869375 -5.81 8.42625 -7 9 C-7.66 8.67 -8.32 8.34 -9 8 C-6.03 5.36 -3.06 2.72 0 0 Z " fill="#B12B38" transform="translate(164,143)"/>
<path d="M0 0 C-1.98 0.33 -3.96 0.66 -6 1 C-6.33 1.99 -6.66 2.98 -7 4 C-9.97 3.505 -9.97 3.505 -13 3 C-13 2.67 -13 2.34 -13 2 C-11.5882217 1.46605821 -10.17029756 0.94834896 -8.75 0.4375 C-7.96109375 0.14746094 -7.1721875 -0.14257812 -6.359375 -0.44140625 C-3.80896548 -1.04522837 -2.44677771 -0.8473932 0 0 Z " fill="#220102" transform="translate(282,384)"/>
<path d="M0 0 C1.65 0 3.3 0 5 0 C2.11964908 2.24027294 -0.84866512 4.16172132 -4 6 C-4 4.35 -4 2.7 -4 1 C-2.68 1.33 -1.36 1.66 0 2 C0 1.34 0 0.68 0 0 Z " fill="#250203" transform="translate(240,241)"/>
<path d="M0 0 C0.66 0.33 1.32 0.66 2 1 C0.35 2.98 -1.3 4.96 -3 7 C-3.99 6.34 -4.98 5.68 -6 5 C-4.02 3.35 -2.04 1.7 0 0 Z " fill="#250102" transform="translate(230,229)"/>
<path d="M0 0 C1.3778771 3.13153887 0.90076044 4.28779473 -0.25 7.625 C-2 11 -2 11 -5 13 C-3.58192622 8.52761347 -1.88695626 4.28853694 0 0 Z " fill="#B42C38" transform="translate(127,189)"/>
<path d="M0 0 C0.66 0.99 1.32 1.98 2 3 C0.35 3.33 -1.3 3.66 -3 4 C-3 4.66 -3 5.32 -3 6 C-4.32 5.67 -5.64 5.34 -7 5 C-4.69 3.35 -2.38 1.7 0 0 Z " fill="#BD2B35" transform="translate(201,181)"/>
<path d="M0 0 C1.65 0 3.3 0 5 0 C2.19195732 2.96404505 -0.18315774 5.44499019 -4 7 C-3.34 5.35 -2.68 3.7 -2 2 C-1.34 2 -0.68 2 0 2 C0 1.34 0 0.68 0 0 Z " fill="#C52E38" transform="translate(182,169)"/>
<path d="M0 0 C0.66 0.33 1.32 0.66 2 1 C-1.17320782 4.53586014 -3.16743695 6.58578031 -8 7 C-5.4837822 4.39391727 -2.94865641 2.10618315 0 0 Z " fill="#2A0304" transform="translate(334,357)"/>
<path d="M0 0 C0.66 0 1.32 0 2 0 C0.44499019 3.81684226 -2.03595495 6.19195732 -5 9 C-4.67 7.35 -4.34 5.7 -4 4 C-3.01 3.67 -2.02 3.34 -1 3 C-0.67 2.01 -0.34 1.02 0 0 Z " fill="#230101" transform="translate(146,158)"/>
<path d="M0 0 C0.99 0.33 1.98 0.66 3 1 C-0.96 4.465 -0.96 4.465 -5 8 C-5.33 7.01 -5.66 6.02 -6 5 C-5.01 4.67 -4.02 4.34 -3 4 C-3 3.34 -3 2.68 -3 2 C-2.01 1.34 -1.02 0.68 0 0 Z " fill="#290202" transform="translate(164,141)"/>
<path d="M0 0 C3 1 3 1 4.25 3.375 C5 6 5 6 4 9 C0 2.25 0 2.25 0 0 Z " fill="#270102" transform="translate(217,299)"/>
<path d="M0 0 C0.99 0.33 1.98 0.66 3 1 C3 1.66 3 2.32 3 3 C3.99 3.33 4.98 3.66 6 4 C7.1875 7.0625 7.1875 7.0625 8 10 C4.71211176 6.88983545 2.16264012 3.98381075 0 0 Z " fill="#2E0303" transform="translate(354,161)"/>
<path d="M0 0 C2.125 0.9375 2.125 0.9375 4 2 C1.69 3.32 -0.62 4.64 -3 6 C-2.625 3.5625 -2.625 3.5625 -2 1 C-1.34 0.67 -0.68 0.34 0 0 Z " fill="#BF2932" transform="translate(332,355)"/>
<path d="M0 0 C2.475 0.495 2.475 0.495 5 1 C5.33 2.98 5.66 4.96 6 7 C1.125 2.25 1.125 2.25 0 0 Z " fill="#C52D3A" transform="translate(327,187)"/>
<path d="M0 0 C2 1 2 1 3 3 C-1.75 7 -1.75 7 -4 7 C-2.79618552 4.50638429 -1.54571278 2.31856917 0 0 Z " fill="#666666" transform="translate(130,151)"/>
</svg>
